<svg xmlns="http://www.w3.org/2000/svg" viewBox="0 0 800 470" font-family="-apple-system, BlinkMacSystemFont, 'Segoe UI', Helvetica, Arial, sans-serif" font-size="12">
  <title>磁盘版 HGraph 概览</title>
  <desc>磁盘版 HGraph 把存储分为两层。内存中保存邻近图的邻接关系和非常紧凑的 base 量化编码（例如 3 位 RaBitQ 编码），每一跳都会读取它们。磁盘上保存精度更高的 precise 副本（例如 sq8）。查询在内存的 base 编码上遍历图，筛出少量 ef_search 入围候选；随后可选的重排（reorder）仅为这些入围候选从磁盘读取 precise 副本，并把它们重排序为返回的 top-k。图遍历从不访问磁盘；磁盘 I/O 只在最后为有限个候选发生一次。</desc>

  <defs>
    <marker id="arrow-flow" viewBox="0 0 10 10" refX="9" refY="5" markerWidth="7" markerHeight="7" orient="auto-start-reverse">
      <path d="M 0 0 L 10 5 L 0 10 z" fill="#e8590c"/>
    </marker>
  </defs>

  <style>
    .title    { fill: #1a1a1a; font-size: 16px; font-weight: 600; }
    .subtitle { fill: #6b7280; font-size: 12px; }
    .lbl      { fill: #1f2937; }
    .lbl-mute { fill: #6b7280; }
    .zone-lbl { fill: #475569; font-size: 11px; font-weight: 600; letter-spacing: 0.6px; }
    .zone-sub { fill: #94a3b8; font-size: 11px; }

    .band-mem  { fill: #eef2ff; stroke: #c7d2fe; stroke-width: 1; }
    .band-disk { fill: #f8fafc; stroke: #e2e8f0; stroke-width: 1; }

    .chip     { fill: #ffffff; stroke: #cbd5e1; stroke-width: 1; }
    .chip-lbl { fill: #334155; font-size: 11px; font-weight: 600; }

    .node       { fill: #ffffff; stroke: #94a3b8; stroke-width: 1; }
    .node-cand  { fill: #ffd8a8; stroke: #e8590c; stroke-width: 1.5; }
    .node-result{ fill: #e03131; stroke: #a61e1e; stroke-width: 1.4; }

    .slot      { fill: #ffffff; stroke: #cbd5e1; stroke-width: 1; }
    .slot-read { fill: #ffd8a8; stroke: #e8590c; stroke-width: 1.4; }

    .edge   { stroke: #cbd5e1; stroke-width: 0.9; fill: none; }
    .flow   { stroke: #e8590c; stroke-width: 2; fill: none; stroke-linecap: round; }
    .read   { stroke: #e8590c; stroke-width: 1.6; fill: none; stroke-dasharray: 4 3; }
    .out    { stroke: #e8590c; stroke-width: 1.8; fill: none; stroke-linecap: round; }

    .pill      { fill: #ffffff; stroke: #e03131; stroke-width: 1.3; }
    .pill-lbl  { fill: #a61e1e; font-size: 11px; font-weight: 600; }

    .step-badge { fill: #e8590c; stroke: #ffffff; stroke-width: 2; }
    .step-num   { fill: #ffffff; font-size: 11px; font-weight: 700; }
    .note-box   { fill: #ffffff; stroke: #e2e8f0; stroke-width: 1; }
  </style>

  <!-- 页眉 -->
  <text class="title"    x="40" y="34">磁盘版 HGraph</text>
  <text class="subtitle" x="40" y="53">内存中遍历紧凑编码 · 仅为入围候选从磁盘读取精确副本</text>

  <!-- =========================================================
       内存层（上）：graph 邻接 + 紧凑 base 编码
       ========================================================= -->
  <rect class="band-mem" x="40" y="72" width="520" height="210" rx="10"/>
  <text class="zone-lbl" x="58"  y="98">内存</text>
  <text class="zone-sub" x="104" y="98">graph + base 编码 · 每跳都读</text>

  <rect class="chip" x="398" y="84" width="70" height="22" rx="6"/>
  <text class="chip-lbl" x="433" y="99" text-anchor="middle">graph</text>
  <rect class="chip" x="476" y="84" width="80" height="22" rx="6"/>
  <text class="chip-lbl" x="516" y="99" text-anchor="middle">base · rabitq</text>

  <!-- 邻近图的边 -->
  <line class="edge" x1="74"  y1="132" x2="120" y2="152"/>
  <line class="edge" x1="74"  y1="132" x2="102" y2="198"/>
  <line class="edge" x1="120" y1="152" x2="168" y2="140"/>
  <line class="edge" x1="120" y1="152" x2="152" y2="194"/>
  <line class="edge" x1="102" y1="198" x2="152" y2="194"/>
  <line class="edge" x1="168" y1="140" x2="152" y2="194"/>
  <line class="edge" x1="168" y1="140" x2="216" y2="158"/>
  <line class="edge" x1="152" y1="194" x2="208" y2="206"/>
  <line class="edge" x1="216" y1="158" x2="208" y2="206"/>
  <line class="edge" x1="216" y1="158" x2="274" y2="152"/>
  <line class="edge" x1="274" y1="152" x2="286" y2="204"/>
  <line class="edge" x1="208" y1="206" x2="286" y2="204"/>
  <line class="edge" x1="152" y1="194" x2="184" y2="240"/>
  <line class="edge" x1="208" y1="206" x2="242" y2="240"/>
  <line class="edge" x1="286" y1="204" x2="300" y2="240"/>
  <line class="edge" x1="216" y1="158" x2="242" y2="240"/>
  <line class="edge" x1="184" y1="240" x2="242" y2="240"/>
  <line class="edge" x1="242" y1="240" x2="300" y2="240"/>

  <!-- 在内存 base 编码上做贪心遍历 -->
  <path class="flow" d="M 74 132 Q 118 150 152 178 Q 200 214 242 240"/>

  <!-- 普通图节点 -->
  <circle class="node" cx="74"  cy="132" r="5.5"/>
  <circle class="node" cx="120" cy="152" r="4.5"/>
  <circle class="node" cx="102" cy="198" r="4.5"/>
  <circle class="node" cx="168" cy="140" r="4.5"/>
  <circle class="node" cx="152" cy="194" r="4.5"/>
  <circle class="node" cx="216" cy="158" r="4.5"/>
  <circle class="node" cx="208" cy="206" r="4.5"/>
  <circle class="node" cx="274" cy="152" r="4.5"/>
  <circle class="node" cx="286" cy="204" r="4.5"/>
  <text class="lbl-mute" x="74" y="120" text-anchor="middle" font-size="10">入口</text>

  <!-- 入围候选 -->
  <circle class="node-cand" cx="184" cy="240" r="6"/>
  <circle class="node-cand" cx="242" cy="240" r="6"/>
  <circle class="node-cand" cx="300" cy="240" r="6"/>

  <!-- 查询 -->
  <g transform="translate(252,212)">
    <polygon points="0,-7 1.646,-2.265 6.657,-2.163 2.663,0.865 4.114,5.663 0,2.8 -4.114,5.663 -2.663,0.865 -6.657,-2.163 -1.646,-2.265"
             fill="#e03131" stroke="#a61e1e" stroke-width="1.1" stroke-linejoin="round"/>
  </g>
  <text class="lbl" x="264" y="216" font-size="11" font-weight="700" fill="#a61e1e">q</text>

  <!-- =========================================================
       磁盘层（下）：高精度 precise 副本，仅为入围候选读取
       ========================================================= -->
  <rect class="band-disk" x="40" y="306" width="520" height="120" rx="10"/>
  <text class="zone-lbl" x="58"  y="332">磁盘</text>
  <rect class="chip" x="104" y="318" width="96" height="22" rx="6"/>
  <text class="chip-lbl" x="152" y="333" text-anchor="middle">precise · sq8</text>

  <!-- top-k 输出 -->
  <rect class="pill" x="470" y="314" width="66" height="24" rx="12"/>
  <text class="pill-lbl" x="503" y="330" text-anchor="middle">top-k</text>

  <!-- precise 记录（连续存储）；其中三条为入围候选读取 -->
  <rect class="slot"      x="64"  y="356" width="28" height="42" rx="3"/>
  <rect class="slot"      x="100" y="356" width="28" height="42" rx="3"/>
  <rect class="slot"      x="136" y="356" width="28" height="42" rx="3"/>
  <rect class="slot"      x="172" y="356" width="28" height="42" rx="3"/>
  <rect class="slot-read" x="208" y="356" width="28" height="42" rx="3"/>
  <rect class="slot"      x="244" y="356" width="28" height="42" rx="3"/>
  <rect class="slot"      x="280" y="356" width="28" height="42" rx="3"/>
  <rect class="slot-read" x="316" y="356" width="28" height="42" rx="3"/>
  <rect class="slot"      x="352" y="356" width="28" height="42" rx="3"/>
  <rect class="slot"      x="388" y="356" width="28" height="42" rx="3"/>
  <rect class="slot-read" x="424" y="356" width="28" height="42" rx="3"/>
  <rect class="slot"      x="460" y="356" width="28" height="42" rx="3"/>

  <!-- 重排为入围候选从磁盘读取 precise 副本（随机读） -->
  <path class="read" d="M 184 250 L 222 354" marker-end="url(#arrow-flow)"/>
  <path class="read" d="M 242 250 L 330 354" marker-end="url(#arrow-flow)"/>
  <path class="read" d="M 300 250 L 438 354" marker-end="url(#arrow-flow)"/>

  <!-- 重排序后的入围候选 -> top-k -->
  <path class="out" d="M 452 362 L 498 340" marker-end="url(#arrow-flow)"/>

  <text class="zone-sub" x="276" y="417" text-anchor="middle">精确副本 · 仅为入围候选读取 · 每次查询一批有限次读取</text>

  <!-- 步骤徽标 -->
  <g>
    <circle class="step-badge" cx="120" cy="116" r="11"/>
    <text class="step-num" x="120" y="120" text-anchor="middle">1</text>
    <circle class="step-badge" cx="344" cy="240" r="11"/>
    <text class="step-num" x="344" y="244" text-anchor="middle">2</text>
    <circle class="step-badge" cx="150" cy="296" r="11"/>
    <text class="step-num" x="150" y="300" text-anchor="middle">3</text>
    <circle class="step-badge" cx="452" cy="322" r="11"/>
    <text class="step-num" x="452" y="326" text-anchor="middle">4</text>
  </g>

  <!-- =========================================================
       右侧图例与存储说明
       ========================================================= -->
  <g transform="translate(600, 96)">
    <g>
      <circle class="step-badge" cx="10" cy="10" r="9"/>
      <text x="10" y="14" text-anchor="middle" fill="#fff" font-size="10" font-weight="700">1</text>
      <text class="lbl" x="28" y="8" font-weight="600">内存中遍历</text>
      <text class="lbl-mute" x="28" y="22" font-size="11">在 graph + base 编码上逐跳</text>
    </g>
    <g transform="translate(0, 44)">
      <circle class="step-badge" cx="10" cy="10" r="9"/>
      <text x="10" y="14" text-anchor="middle" fill="#fff" font-size="10" font-weight="700">2</text>
      <text class="lbl" x="28" y="8" font-weight="600">筛出入围候选</text>
      <text class="lbl-mute" x="28" y="22" font-size="11">保留 ef_search 个候选</text>
    </g>
    <g transform="translate(0, 88)">
      <circle class="step-badge" cx="10" cy="10" r="9"/>
      <text x="10" y="14" text-anchor="middle" fill="#fff" font-size="10" font-weight="700">3</text>
      <text class="lbl" x="28" y="8" font-weight="600">从磁盘读 precise</text>
      <text class="lbl-mute" x="28" y="22" font-size="11">重排读取精确副本</text>
    </g>
    <g transform="translate(0, 132)">
      <circle class="step-badge" cx="10" cy="10" r="9"/>
      <text x="10" y="14" text-anchor="middle" fill="#fff" font-size="10" font-weight="700">4</text>
      <text class="lbl" x="28" y="8" font-weight="600">返回 top-k</text>
      <text class="lbl-mute" x="28" y="22" font-size="11">重排序后的最近邻</text>
    </g>

    <g transform="translate(0, 178)">
      <rect class="note-box" x="0" y="0" width="168" height="96" rx="6"/>
      <text class="zone-lbl" x="12" y="20" font-size="10">存储</text>
      <text class="lbl-mute" x="12" y="38" font-size="11">内存 · base</text>
      <text class="lbl"      x="12" y="52" font-size="11">rabitq · 紧凑编码</text>
      <line x1="12" y1="60" x2="156" y2="60" stroke="#e2e8f0"/>
      <text class="lbl-mute" x="12" y="76" font-size="11">磁盘 · precise</text>
      <text class="lbl"      x="12" y="90" font-size="11">sq8 · async_io · use_reorder</text>
    </g>
  </g>

  <!-- =========================================================
       底部图例
       ========================================================= -->
  <g transform="translate(40, 452)">
    <circle class="node" cx="6" cy="0" r="5"/>
    <text class="lbl-mute" x="16" y="4">图节点 · base 编码</text>

    <circle class="node-cand" cx="164" cy="0" r="5"/>
    <text class="lbl-mute" x="174" y="4">入围候选</text>

    <g transform="translate(248, 0)">
      <polygon points="0,-6 1.4,-1.9 5.7,-1.85 2.3,0.74 3.5,4.85 0,2.4 -3.5,4.85 -2.3,0.74 -5.7,-1.85 -1.4,-1.9"
               fill="#e03131" stroke="#a61e1e" stroke-width="1" stroke-linejoin="round"/>
    </g>
    <text class="lbl-mute" x="260" y="4">查询 q</text>

    <rect class="slot-read" x="330" y="-7" width="14" height="14" rx="2"/>
    <text class="lbl-mute" x="352" y="4">precise 记录</text>

    <line class="read" x1="452" y1="0" x2="482" y2="0" marker-end="url(#arrow-flow)"/>
    <text class="lbl-mute" x="490" y="4">磁盘读取</text>

    <rect class="pill" x="566" y="-9" width="44" height="18" rx="9"/>
    <text class="pill-lbl" x="588" y="4" text-anchor="middle">top-k</text>
  </g>
</svg>
