<svg xmlns="http://www.w3.org/2000/svg" viewBox="0 0 760 190" font-family="-apple-system, BlinkMacSystemFont, 'PingFang SC', 'Microsoft YaHei', 'Segoe UI', Helvetica, Arial, sans-serif">
  <defs>
    <marker id="arrow" markerWidth="10" markerHeight="10" refX="8" refY="5" orient="auto">
      <path d="M 0 0 L 10 5 L 0 10 z" fill="#44546a"/>
    </marker>
  </defs>
  <rect x="15" y="45" width="140" height="58" rx="6" fill="#e8f1ff" stroke="#4f81bd"/>
  <text x="85" y="70" text-anchor="middle" font-size="14" fill="#1f2937">已构建索引</text>
  <text x="85" y="90" text-anchor="middle" font-size="12" fill="#4b5563">内存对象</text>
  <line x1="155" y1="74" x2="250" y2="74" stroke="#44546a" stroke-width="2" marker-end="url(#arrow)"/>
  <text x="202" y="58" text-anchor="middle" font-size="12" fill="#374151">SerializeStreaming</text>
  <rect x="255" y="45" width="150" height="58" rx="6" fill="#fff3df" stroke="#d9902f"/>
  <text x="330" y="70" text-anchor="middle" font-size="14" fill="#1f2937">Streaming 文件</text>
  <text x="330" y="90" text-anchor="middle" font-size="12" fill="#4b5563">存储 / 传输</text>
  <line x1="405" y1="58" x2="565" y2="35" stroke="#44546a" stroke-width="2" marker-end="url(#arrow)"/>
  <text x="488" y="36" text-anchor="middle" font-size="12" fill="#374151">DeserializeStreaming</text>
  <rect x="570" y="8" width="170" height="58" rx="6" fill="#eef7ee" stroke="#6aa84f"/>
  <text x="655" y="33" text-anchor="middle" font-size="14" fill="#1f2937">完整恢复</text>
  <text x="655" y="53" text-anchor="middle" font-size="12" fill="#4b5563">调用方先创建索引</text>
  <line x1="405" y1="92" x2="565" y2="126" stroke="#44546a" stroke-width="2" marker-end="url(#arrow)"/>
  <text x="488" y="119" text-anchor="middle" font-size="12" fill="#374151">Index::Load</text>
  <rect x="570" y="105" width="170" height="58" rx="6" fill="#f4ecff" stroke="#8e7cc3"/>
  <text x="655" y="130" text-anchor="middle" font-size="14" fill="#1f2937">服务索引</text>
  <text x="655" y="150" text-anchor="middle" font-size="12" fill="#4b5563">可直接搜索</text>
</svg>
