<svg xmlns="http://www.w3.org/2000/svg" viewBox="0 0 860 360" font-family="-apple-system, BlinkMacSystemFont, 'PingFang SC', 'Microsoft YaHei', 'Segoe UI', Helvetica, Arial, sans-serif">
  <defs>
    <marker id="arrow" markerWidth="10" markerHeight="10" refX="8" refY="5" orient="auto">
      <path d="M 0 0 L 10 5 L 0 10 z" fill="#44546a"/>
    </marker>
  </defs>
  <rect x="30" y="36" width="170" height="58" rx="6" fill="#e8f1ff" stroke="#4f81bd"/>
  <text x="115" y="62" text-anchor="middle" font-size="14" fill="#1f2937">读取 TLV header</text>
  <text x="115" y="82" text-anchor="middle" font-size="12" fill="#4b5563">tag / version / flags</text>
  <line x1="200" y1="65" x2="285" y2="65" stroke="#44546a" stroke-width="2" marker-end="url(#arrow)"/>
  <rect x="290" y="36" width="190" height="58" rx="6" fill="#fff3df" stroke="#d9902f"/>
  <text x="385" y="62" text-anchor="middle" font-size="14" fill="#1f2937">查支持版本</text>
  <text x="385" y="82" text-anchor="middle" font-size="12" fill="#4b5563">按 block tag 判断</text>
  <line x1="480" y1="65" x2="565" y2="65" stroke="#44546a" stroke-width="2" marker-end="url(#arrow)"/>
  <rect x="570" y="36" width="240" height="58" rx="6" fill="#eef7ee" stroke="#6aa84f"/>
  <text x="690" y="62" text-anchor="middle" font-size="14" fill="#1f2937">版本支持</text>
  <text x="690" y="82" text-anchor="middle" font-size="12" fill="#4b5563">按对应 reader 解析 payload</text>
  <line x1="385" y1="94" x2="385" y2="150" stroke="#44546a" stroke-width="2" marker-end="url(#arrow)"/>
  <text x="415" y="126" font-size="12" fill="#374151">版本过高或不支持</text>
  <rect x="250" y="154" width="270" height="58" rx="6" fill="#f8e8e8" stroke="#cc6666"/>
  <text x="385" y="180" text-anchor="middle" font-size="14" fill="#1f2937">critical block?</text>
  <text x="385" y="200" text-anchor="middle" font-size="12" fill="#4b5563">例如 base_codes / graph / label_table</text>
  <line x1="250" y1="183" x2="165" y2="260" stroke="#44546a" stroke-width="2" marker-end="url(#arrow)"/>
  <text x="185" y="215" text-anchor="middle" font-size="12" fill="#374151">是</text>
  <rect x="30" y="266" width="230" height="58" rx="6" fill="#fdecec" stroke="#c0504d"/>
  <text x="145" y="292" text-anchor="middle" font-size="14" fill="#1f2937">报错中断</text>
  <text x="145" y="312" text-anchor="middle" font-size="12" fill="#4b5563">避免旧代码误读新格式</text>
  <line x1="520" y1="183" x2="610" y2="260" stroke="#44546a" stroke-width="2" marker-end="url(#arrow)"/>
  <text x="585" y="215" text-anchor="middle" font-size="12" fill="#374151">否</text>
  <rect x="600" y="266" width="230" height="58" rx="6" fill="#eef7ee" stroke="#6aa84f"/>
  <text x="715" y="292" text-anchor="middle" font-size="14" fill="#1f2937">跳过 payload</text>
  <text x="715" y="312" text-anchor="middle" font-size="12" fill="#4b5563">使用 value_len 定位下一块</text>
</svg>
