<svg xmlns="http://www.w3.org/2000/svg" width="980" height="460" viewBox="0 0 980 460">
  <defs>
    <style>
      .title { font: 700 22px Arial, sans-serif; fill: #1f2937; }
      .axis { stroke: #9ca3af; stroke-width: 1.2; }
      .grid { stroke: #e5e7eb; stroke-width: 1; }
      .label { font: 14px Arial, sans-serif; fill: #374151; }
      .small { font: 12px Arial, sans-serif; fill: #4b5563; }
      .value { font: 700 14px Arial, sans-serif; fill: #111827; }
    </style>
  </defs>
  <rect width="980" height="460" fill="#ffffff"/>

  <text x="245" y="72" text-anchor="middle" class="label">索引规模（GB）</text>
  <line x1="90" y1="350" x2="430" y2="350" class="axis"/>
  <line x1="90" y1="100" x2="90" y2="350" class="axis"/>
  <line x1="90" y1="287.5" x2="430" y2="287.5" class="grid"/>
  <line x1="90" y1="225" x2="430" y2="225" class="grid"/>
  <line x1="90" y1="162.5" x2="430" y2="162.5" class="grid"/>
  <text x="82" y="354" text-anchor="end" class="small">0</text>
  <text x="82" y="292" text-anchor="end" class="small">5</text>
  <text x="82" y="229" text-anchor="end" class="small">10</text>
  <text x="82" y="167" text-anchor="end" class="small">15</text>
  <text x="82" y="104" text-anchor="end" class="small">20</text>

  <rect x="125" y="287.6" width="58" height="62.4" fill="#22c55e" rx="5"/>
  <rect x="235" y="110.3" width="58" height="239.7" fill="#64748b" rx="5"/>
  <rect x="345" y="295.9" width="58" height="54.1" fill="#60a5fa" rx="5"/>
  <text x="154" y="279" text-anchor="middle" class="value">4.99</text>
  <text x="264" y="102" text-anchor="middle" class="value">19.18</text>
  <text x="374" y="287" text-anchor="middle" class="value">4.33</text>
  <text x="154" y="380" text-anchor="middle" class="label">SINDI</text>
  <text x="264" y="380" text-anchor="middle" class="label">传统倒排</text>
  <text x="374" y="380" text-anchor="middle" class="label">图索引</text>

  <text x="725" y="72" text-anchor="middle" class="label">构建时间（秒）</text>
  <line x1="570" y1="350" x2="910" y2="350" class="axis"/>
  <line x1="570" y1="100" x2="570" y2="350" class="axis"/>
  <line x1="570" y1="284.8" x2="910" y2="284.8" class="grid"/>
  <line x1="570" y1="219.5" x2="910" y2="219.5" class="grid"/>
  <line x1="570" y1="154.3" x2="910" y2="154.3" class="grid"/>
  <text x="562" y="354" text-anchor="end" class="small">0</text>
  <text x="562" y="289" text-anchor="end" class="small">500</text>
  <text x="562" y="224" text-anchor="end" class="small">1000</text>
  <text x="562" y="159" text-anchor="end" class="small">1500</text>
  <text x="562" y="104" text-anchor="end" class="small">1900+</text>

  <rect x="605" y="345.7" width="58" height="4.3" fill="#22c55e" rx="3"/>
  <rect x="715" y="278.1" width="58" height="71.9" fill="#64748b" rx="5"/>
  <rect x="825" y="100" width="58" height="250" fill="#60a5fa" rx="5"/>
  <text x="634" y="337" text-anchor="middle" class="value">33.0</text>
  <text x="744" y="270" text-anchor="middle" class="value">551.4</text>
  <text x="854" y="92" text-anchor="middle" class="value">1915.77</text>
  <text x="634" y="380" text-anchor="middle" class="label">SINDI</text>
  <text x="744" y="380" text-anchor="middle" class="label">传统倒排</text>
  <text x="854" y="380" text-anchor="middle" class="label">图索引</text>
</svg>
