<?xml version="1.0" encoding="UTF-8"?>
<svg xmlns="http://www.w3.org/2000/svg" viewBox="0 0 113.82 121.61">
  <defs>
    <linearGradient id="goldGradientBottomRight" x1="128.79" y1="89.56" x2="88.03" y2="125.74" gradientUnits="userSpaceOnUse">
      <stop offset="0" stop-color="#fce897"/>
      <stop offset="1" stop-color="#f4bd37"/>
    </linearGradient>
    <linearGradient id="goldGradientCircleLarge" x1="24.77" y1="20.75" x2="-6.29" y2="35.04" href="#goldGradientBottomRight"/>
    <linearGradient id="goldGradientCircleMedium" x1="16.66" y1="12.98" x2="27.68" y2="12.98" href="#goldGradientBottomRight"/>
    <linearGradient id="goldGradientCircleSmall" x1="2.71" y1="4.33" x2="11.36" y2="4.33" href="#goldGradientBottomRight"/>
    <linearGradient id="goldGradientTopRight" x1="143.8" y1="-13.53" x2="55.57" y2="64.82" href="#goldGradientBottomRight"/>
    <linearGradient id="darkGradientBottomLeft" x1="64.52" y1="55.38" x2="-2.89" y2="127.73" gradientUnits="userSpaceOnUse">
      <stop offset="0" stop-color="#000"/>
      <stop offset=".02" stop-color="#010101"/>
      <stop offset="1" stop-color="#3e3a39"/>
    </linearGradient>
  </defs>
  <g>
    <rect fill="url(#goldGradientBottomRight)" x="93.94" y="101.73" width="19.89" height="19.89"/>
    <circle fill="url(#goldGradientCircleLarge)" cx="8.54" cy="28.21" r="8.54"/>
    <circle fill="url(#goldGradientCircleMedium)" cx="22.17" cy="12.98" r="5.51"/>
    <circle fill="url(#goldGradientCircleSmall)" cx="7.03" cy="4.33" r="4.33"/>
    <path fill="url(#goldGradientTopRight)" d="M113.82,90.84h-31.26v-41.01c0-5.6-4.51-10.15-10.11-10.2l-40.99-.37V8.48h64.61c9.8,0,17.75,7.95,17.75,17.75v64.61Z"/>
    <path fill="url(#darkGradientBottomLeft)" d="M0,39.25h31.26v41.01c0,5.6,4.51,10.15,10.11,10.2l40.99.37v30.77H17.75C7.95,121.61,0,113.67,0,103.86V39.25Z"/>
  </g>
</svg>
