<svg xmlns="http://www.w3.org/2000/svg" viewBox="0 0 780 560" font-family="-apple-system, BlinkMacSystemFont, 'PingFang SC', 'Microsoft YaHei', 'Segoe UI', Helvetica, Arial, sans-serif" font-size="12">
  <title>Pyramid 索引概览</title>
  <desc>Pyramid 为每个向量绑定一个路径字符串（如 "a/d/f"），并为路径树的每个节点构建一个邻近子图。查询带有路径前缀；搜索沿树下行到最具体的匹配子图，再在叶子图内执行 ef_search。no_build_levels 中列出的层级是透传容器，回退到线性扫描。</desc>

  <defs>
    <marker id="arrow-search" viewBox="0 0 10 10" refX="9" refY="5" markerWidth="7" markerHeight="7" orient="auto-start-reverse">
      <path d="M 0 0 L 10 5 L 0 10 z" fill="#e8590c"/>
    </marker>
  </defs>

  <style>
    .title    { fill: #1a1a1a; font-size: 16px; font-weight: 600; }
    .subtitle { fill: #6b7280; font-size: 12px; }
    .lbl      { fill: #1f2937; }
    .lbl-mute { fill: #6b7280; }
    .layer-lbl { fill: #475569; font-size: 11px; font-weight: 600; letter-spacing: 0.6px; }
    .layer-sub { fill: #94a3b8; font-size: 11px; }

    .band       { fill: #f8fafc; stroke: #e2e8f0; stroke-width: 1; }
    .band-top   { fill: #f1f5f9; stroke: #e2e8f0; stroke-width: 1; }

    /* tree nodes */
    .tnode       { fill: #ffffff; stroke: #94a3b8; stroke-width: 1; }
    .tnode-hi    { fill: #fff4e6; stroke: #e8590c; stroke-width: 1.6; }
    .tnode-skip  { fill: #f1f5f9; stroke: #cbd5e1; stroke-width: 1; stroke-dasharray: 4 3; }
    .tedge       { stroke: #cbd5e1; stroke-width: 1; fill: none; }
    .tedge-hi    { stroke: #e8590c; stroke-width: 2; fill: none; stroke-linecap: round; }
    .tnode-lbl   { fill: #1f2937; font-size: 11px; font-weight: 600; }
    .tnode-lbl-hi{ fill: #a14503; font-size: 11px; font-weight: 700; }
    .tnode-lbl-skip{ fill: #94a3b8; font-size: 11px; font-weight: 600; }
    .tnode-sub   { fill: #94a3b8; font-size: 9px; }

    /* leaf graph */
    .gnode       { fill: #ffffff; stroke: #94a3b8; stroke-width: 1; }
    .gnode-hi    { fill: #ffffff; stroke: #5c7cfa; stroke-width: 1.3; }
    .gnode-entry { fill: #5c7cfa; stroke: #364fc7; stroke-width: 1.4; }
    .gnode-visit { fill: #ffd8a8; stroke: #e8590c; stroke-width: 1.5; }
    .gnode-result{ fill: #e03131; stroke: #a61e1e; stroke-width: 1.4; }
    .gedge       { stroke: #cbd5e1; stroke-width: 0.8; fill: none; }

    .frontier    { fill: #fff4e6; stroke: #e8590c; stroke-width: 1; stroke-dasharray: 4 3; opacity: 0.85; }
    .search      { stroke: #e8590c; stroke-width: 2; fill: none; stroke-linecap: round; }

    .step-badge  { fill: #e8590c; stroke: #ffffff; stroke-width: 2; }
    .step-num    { fill: #ffffff; font-size: 11px; font-weight: 700; }

    .note-box    { fill: #ffffff; stroke: #e2e8f0; stroke-width: 1; }

    /* query path chip */
    .pchip       { fill: #fff4e6; stroke: #e8590c; stroke-width: 1.3; }
    .pchip-text  { fill: #a14503; font-size: 11px; font-weight: 700; }
  </style>

  <!-- Header -->
  <text class="title"    x="40" y="34">Pyramid</text>
  <text class="subtitle" x="40" y="52">按路径分区的层级图 · 每个节点一个子图 · 搜索被限制在查询路径上</text>

  <!-- Query path chip -->
  <g transform="translate(40, 70)">
    <text class="layer-lbl" x="0" y="12">查询路径</text>
    <rect class="pchip" x="100" y="0" width="120" height="22" rx="5"/>
    <text class="pchip-text" x="160" y="16" text-anchor="middle">"a / d / f"</text>
  </g>

  <!-- =========================================================
       Left panel: path tree
       Panel origin (40, 110), size 340 x 410.
       Tree: root → {a*, b, c} → {d*, e, ...} → {f*, g} → {sub-graph}
       * = on query path → highlighted
       ========================================================= -->
  <g transform="translate(40, 110)">
    <rect class="band" x="0" y="0" width="340" height="410" rx="10"/>
    <text class="layer-lbl" x="14" y="20">路径树</text>
    <text class="layer-sub" x="68" y="20">每个节点一个子图</text>

    <!--
      Level y positions (panel y):
        L0 (root)     :  56
        L1            : 130
        L2            : 220
        L3 (leaves)   : 310
    -->

    <!-- edges (drawn first, so nodes sit on top) -->
    <!-- root → L1 -->
    <line class="tedge-hi" x1="170" y1="64" x2="80"  y2="122"/>
    <line class="tedge"    x1="170" y1="64" x2="170" y2="122"/>
    <line class="tedge"    x1="170" y1="64" x2="260" y2="122"/>
    <!-- a → L2 -->
    <line class="tedge-hi" x1="80"  y1="138" x2="40"  y2="212"/>
    <line class="tedge"    x1="80"  y1="138" x2="120" y2="212"/>
    <!-- b → L2 -->
    <line class="tedge"    x1="170" y1="138" x2="170" y2="212"/>
    <!-- c → L2 -->
    <line class="tedge"    x1="260" y1="138" x2="240" y2="212"/>
    <line class="tedge"    x1="260" y1="138" x2="295" y2="212"/>
    <!-- d → L3 -->
    <line class="tedge-hi" x1="40"  y1="228" x2="40"  y2="302"/>
    <line class="tedge"    x1="40"  y1="228" x2="80"  y2="302"/>

    <!-- nodes -->
    <!-- root -->
    <circle class="tnode" cx="170" cy="56" r="14"/>
    <text class="tnode-lbl" x="170" y="60" text-anchor="middle">/</text>
    <text class="tnode-sub" x="170" y="40" text-anchor="middle">根</text>

    <!-- L1: a (hi), b, c -->
    <circle class="tnode-hi" cx="80"  cy="130" r="14"/>
    <text class="tnode-lbl-hi" x="80" y="134" text-anchor="middle">a</text>

    <circle class="tnode-skip" cx="170" cy="130" r="14"/>
    <text class="tnode-lbl-skip" x="170" y="134" text-anchor="middle">b</text>

    <circle class="tnode" cx="260" cy="130" r="14"/>
    <text class="tnode-lbl" x="260" y="134" text-anchor="middle">c</text>

    <!-- L2: d (hi), e ; under b: stub ; under c: f, g -->
    <circle class="tnode-hi" cx="40"  cy="220" r="14"/>
    <text class="tnode-lbl-hi" x="40" y="224" text-anchor="middle">d</text>

    <circle class="tnode" cx="120" cy="220" r="14"/>
    <text class="tnode-lbl" x="120" y="224" text-anchor="middle">e</text>

    <circle class="tnode-skip" cx="170" cy="220" r="14"/>
    <text class="tnode-lbl-skip" x="170" y="224" text-anchor="middle">…</text>

    <circle class="tnode" cx="240" cy="220" r="14"/>
    <text class="tnode-lbl" x="240" y="224" text-anchor="middle">x</text>

    <circle class="tnode" cx="295" cy="220" r="14"/>
    <text class="tnode-lbl" x="295" y="224" text-anchor="middle">y</text>

    <!-- L3 leaves: f (hi), g  (children of d) -->
    <circle class="tnode-hi" cx="40"  cy="310" r="14"/>
    <text class="tnode-lbl-hi" x="40" y="314" text-anchor="middle">f</text>

    <circle class="tnode" cx="80"  cy="310" r="14"/>
    <text class="tnode-lbl" x="80" y="314" text-anchor="middle">g</text>

    <!-- Level labels on the right gutter -->
    <text class="lbl-mute" x="320" y="60" text-anchor="end" font-size="10">L0</text>
    <text class="lbl-mute" x="320" y="134" text-anchor="end" font-size="10">L1</text>
    <text class="lbl-mute" x="320" y="224" text-anchor="end" font-size="10">L2</text>
    <text class="lbl-mute" x="320" y="314" text-anchor="end" font-size="10">L3</text>

    <!-- annotation: dashed node = no_build_levels / small partition -->
    <g transform="translate(140, 348)">
      <circle class="tnode-skip" cx="10" cy="10" r="8"/>
      <text class="lbl-mute" x="26" y="14" font-size="10">透传 · no_build_levels</text>
    </g>
    <g transform="translate(140, 372)">
      <circle class="tnode-hi" cx="10" cy="10" r="8"/>
      <text class="lbl-mute" x="26" y="14" font-size="10">查询路径 "a/d/f" 上的节点</text>
    </g>

    <!-- "zoom" indicator from leaf f → right panel -->
    <path d="M 56 310 L 90 310" stroke="#e8590c" stroke-width="1.4" fill="none"
          stroke-dasharray="3 3" opacity="0.7"/>
  </g>

  <!-- =========================================================
       Right panel: sub-graph at leaf "a/d/f"
       Panel origin (400, 110), size 360 x 410.
       ========================================================= -->
  <g transform="translate(400, 110)">
    <rect class="band" x="0" y="0" width="360" height="410" rx="10"/>
    <text class="layer-lbl" x="14" y="20">叶子子图 "a/d/f"</text>
    <text class="layer-sub" x="160" y="20">在子图内进行 ef_search</text>

    <!-- ef_search frontier behind nodes -->
    <ellipse class="frontier" cx="240" cy="240" rx="65" ry="48"/>

    <!-- proximity edges -->
    <line class="gedge" x1="60"  y1="80"  x2="100" y2="105"/>
    <line class="gedge" x1="60"  y1="80"  x2="90"  y2="140"/>
    <line class="gedge" x1="100" y1="105" x2="140" y2="135"/>
    <line class="gedge" x1="100" y1="105" x2="155" y2="90"/>
    <line class="gedge" x1="90"  y1="140" x2="140" y2="135"/>
    <line class="gedge" x1="90"  y1="140" x2="120" y2="180"/>
    <line class="gedge" x1="140" y1="135" x2="170" y2="170"/>
    <line class="gedge" x1="140" y1="135" x2="195" y2="135"/>
    <line class="gedge" x1="120" y1="180" x2="170" y2="170"/>
    <line class="gedge" x1="120" y1="180" x2="160" y2="220"/>
    <line class="gedge" x1="170" y1="170" x2="195" y2="135"/>
    <line class="gedge" x1="170" y1="170" x2="215" y2="200"/>
    <line class="gedge" x1="170" y1="170" x2="160" y2="220"/>
    <line class="gedge" x1="195" y1="135" x2="235" y2="115"/>
    <line class="gedge" x1="195" y1="135" x2="240" y2="170"/>
    <line class="gedge" x1="155" y1="90"  x2="235" y2="115"/>
    <line class="gedge" x1="235" y1="115" x2="240" y2="170"/>
    <line class="gedge" x1="235" y1="115" x2="295" y2="120"/>
    <line class="gedge" x1="240" y1="170" x2="215" y2="200"/>
    <line class="gedge" x1="240" y1="170" x2="280" y2="200"/>
    <line class="gedge" x1="240" y1="170" x2="240" y2="220"/>
    <line class="gedge" x1="215" y1="200" x2="240" y2="240"/>
    <line class="gedge" x1="215" y1="200" x2="240" y2="220"/>
    <line class="gedge" x1="160" y1="220" x2="200" y2="250"/>
    <line class="gedge" x1="200" y1="250" x2="240" y2="240"/>
    <line class="gedge" x1="200" y1="250" x2="225" y2="285"/>
    <line class="gedge" x1="240" y1="220" x2="240" y2="240"/>
    <line class="gedge" x1="240" y1="220" x2="285" y2="245"/>
    <line class="gedge" x1="240" y1="240" x2="265" y2="275"/>
    <line class="gedge" x1="240" y1="240" x2="285" y2="245"/>
    <line class="gedge" x1="240" y1="240" x2="225" y2="285"/>
    <line class="gedge" x1="265" y1="275" x2="285" y2="245"/>
    <line class="gedge" x1="265" y1="275" x2="305" y2="285"/>
    <line class="gedge" x1="225" y1="285" x2="265" y2="275"/>
    <line class="gedge" x1="280" y1="200" x2="285" y2="245"/>
    <line class="gedge" x1="280" y1="200" x2="320" y2="200"/>
    <line class="gedge" x1="285" y1="245" x2="320" y2="200"/>
    <line class="gedge" x1="285" y1="245" x2="320" y2="270"/>
    <line class="gedge" x1="295" y1="120" x2="320" y2="160"/>
    <line class="gedge" x1="295" y1="120" x2="330" y2="100"/>
    <line class="gedge" x1="320" y1="160" x2="320" y2="200"/>
    <line class="gedge" x1="305" y1="285" x2="320" y2="270"/>

    <!-- entry node (top-left) -->
    <circle class="gnode-entry" cx="60" cy="80" r="6"/>
    <text class="lbl" x="60" y="68" text-anchor="middle" font-size="10" fill="#364fc7" font-weight="600">入口点</text>

    <!-- regular nodes -->
    <circle class="gnode" cx="100" cy="105" r="4"/>
    <circle class="gnode" cx="90"  cy="140" r="4"/>
    <circle class="gnode" cx="140" cy="135" r="4"/>
    <circle class="gnode" cx="155" cy="90"  r="4"/>
    <circle class="gnode" cx="120" cy="180" r="4"/>
    <circle class="gnode" cx="195" cy="135" r="4"/>
    <circle class="gnode" cx="160" cy="220" r="4"/>
    <circle class="gnode" cx="235" cy="115" r="4"/>
    <circle class="gnode" cx="200" cy="250" r="4"/>
    <circle class="gnode" cx="280" cy="200" r="4"/>
    <circle class="gnode" cx="225" cy="285" r="4"/>
    <circle class="gnode" cx="305" cy="285" r="4"/>
    <circle class="gnode" cx="320" cy="200" r="4"/>
    <circle class="gnode" cx="320" cy="270" r="4"/>
    <circle class="gnode" cx="295" cy="120" r="4"/>
    <circle class="gnode" cx="320" cy="160" r="4"/>
    <circle class="gnode" cx="330" cy="100" r="4"/>

    <!-- visited along the search -->
    <circle class="gnode-visit" cx="170" cy="170" r="5.4"/>
    <circle class="gnode-visit" cx="215" cy="200" r="5.4"/>
    <circle class="gnode-visit" cx="240" cy="220" r="5.4"/>
    <circle class="gnode-visit" cx="265" cy="275" r="5.4"/>
    <circle class="gnode-visit" cx="285" cy="245" r="5.4"/>

    <!-- nearest neighbour -->
    <circle class="gnode-result" cx="240" cy="240" r="5.6"/>

    <!-- query star -->
    <polygon points="263,247 265.6,253.4 272.5,253.4 267,257.4 269.2,264 263,259.7 256.8,264 259,257.4 253.5,253.4 260.4,253.4"
             fill="#e03131" stroke="#a61e1e" stroke-width="1.1" stroke-linejoin="round"/>
    <text class="lbl" x="263" y="280" text-anchor="middle" font-size="11" font-weight="700" fill="#a61e1e">q</text>

    <!-- search path from entry → ... → nearest -->
    <path class="search" d="M 60 80 Q 110 130 170 170 T 240 220 T 240 240" marker-end="url(#arrow-search)"/>

    <!-- ef_search caption -->
    <text class="lbl-mute" x="240" y="305" text-anchor="middle" font-size="11">ef_search 候选边界</text>
  </g>

  <!-- =========================================================
       Step badges placed along the trajectory (svg coords)
       ========================================================= -->
  <g>
    <!-- 1: at root node of left panel (svg ~210, 158) -->
    <circle class="step-badge" cx="232" cy="158" r="11"/>
    <text class="step-num"    x="232" y="162" text-anchor="middle">1</text>

    <!-- 2: zoom from leaf 'f' to right panel (svg ~410, 420) -->
    <circle class="step-badge" cx="408" cy="420" r="11"/>
    <text class="step-num"    x="408" y="424" text-anchor="middle">2</text>

    <!-- 3: ef_search inside right panel — near the frontier ellipse -->
    <circle class="step-badge" cx="715" cy="305" r="11"/>
    <text class="step-num"    x="715" y="309" text-anchor="middle">3</text>
  </g>

  <!-- =========================================================
       Bottom legend
       ========================================================= -->
  <g transform="translate(40, 553)">
    <circle class="tnode-hi" cx="6" cy="0" r="7"/>
    <text class="lbl-mute" x="20" y="4">路径前缀匹配</text>

    <circle class="tnode-skip" cx="130" cy="0" r="7"/>
    <text class="lbl-mute" x="144" y="4">no_build_levels（回退扫描）</text>

    <circle class="gnode-entry" cx="358" cy="0" r="6"/>
    <text class="lbl-mute" x="370" y="4">叶子图入口</text>

    <circle class="gnode-result" cx="468" cy="0" r="6"/>
    <text class="lbl-mute" x="480" y="4">最近邻</text>

    <polygon points="568,-6.2 570.2,-1.4 575.5,-1.4 571.2,1.6 572.8,6.2 568,3.2 563.2,6.2 564.8,1.6 560.5,-1.4 565.8,-1.4"
             fill="#e03131" stroke="#a61e1e" stroke-width="1" stroke-linejoin="round"/>
    <text class="lbl-mute" x="582" y="4">查询 q</text>
  </g>

  <!-- =========================================================
       Right-side note (compact). Place steps 1-3 next to the leaf-graph panel
       in the lower-right vacant area.
       Actually the leaf-graph panel already occupies right; put step legend
       below the bottom of the right panel. We have y=520 → bottom legend at 545.
       So place inline step legend at the top-right INSIDE the leaf panel area.
       To keep the figure clean we use NO right-side annotation column;
       step numbers reference the in-place badges plus this small inline panel.
       ========================================================= -->

  <!-- compact step legend at the very top right corner -->
  <g transform="translate(400, 70)">
    <rect class="note-box" x="0" y="-12" width="360" height="32" rx="6"/>
    <g>
      <circle class="step-badge" cx="14" cy="4" r="8"/>
      <text x="14" y="8" text-anchor="middle" fill="#fff" font-size="9" font-weight="700">1</text>
      <text class="lbl" x="28" y="8" font-size="11" font-weight="600">下行路径</text>

      <circle class="step-badge" cx="110" cy="4" r="8"/>
      <text x="110" y="8" text-anchor="middle" fill="#fff" font-size="9" font-weight="700">2</text>
      <text class="lbl" x="124" y="8" font-size="11" font-weight="600">进入叶子子图</text>

      <circle class="step-badge" cx="230" cy="4" r="8"/>
      <text x="230" y="8" text-anchor="middle" fill="#fff" font-size="9" font-weight="700">3</text>
      <text class="lbl" x="244" y="8" font-size="11" font-weight="600">ef_search → top-k</text>
    </g>
  </g>
</svg>
