<svg xmlns="http://www.w3.org/2000/svg" width="1080" height="430" viewBox="0 0 1080 430">
  <defs>
    <style>
      .title { font: 700 24px Arial, "Microsoft YaHei", sans-serif; fill: #172033; }
      .section { font: 700 18px Arial, "Microsoft YaHei", sans-serif; fill: #172033; }
      .label { font: 700 13px Arial, "Microsoft YaHei", sans-serif; fill: #334155; }
      .loop-label { font: 700 16px Arial, "Microsoft YaHei", sans-serif; fill: #334155; }
      .loop-note { font: 14px Arial, "Microsoft YaHei", sans-serif; fill: #64748b; }
      .text { font: 13px Arial, "Microsoft YaHei", sans-serif; fill: #475569; }
      .small { font: 12px Arial, "Microsoft YaHei", sans-serif; fill: #64748b; }
      .mono { font: 12px Consolas, "SFMono-Regular", monospace; fill: #1f2937; }
      .outer { fill: #f8fafc; stroke: #cbd5e1; stroke-width: 1.4; stroke-dasharray: 7 6; rx: 18; }
      .stage { fill: #ffffff; stroke: #cbd5e1; stroke-width: 1.4; rx: 10; }
      .window { fill: #eef6ff; stroke: #87bdf8; stroke-width: 1.3; rx: 8; }
      .term { fill: #eef2ff; stroke: #818cf8; stroke-width: 1.1; }
      .id { fill: #dbeafe; stroke: #60a5fa; stroke-width: 1.1; }
      .value { fill: #fef3c7; stroke: #f59e0b; stroke-width: 1.1; }
      .query { fill: #e0f2fe; stroke: #38bdf8; stroke-width: 1.1; }
      .product { fill: #ecfdf5; stroke: #34d399; stroke-width: 1.1; }
      .score { fill: #f1f5f9; stroke: #cbd5e1; stroke-width: 1.1; rx: 5; }
      .score-empty { fill: #f1f5f9; stroke: #cbd5e1; stroke-width: 1.1; rx: 5; }
      .heap-hit { fill: #eef2ff; stroke: #818cf8; stroke-width: 1.2; rx: 5; }
      .heap-node { fill: #ffffff; stroke: #818cf8; stroke-width: 1.4; }
      .muted { fill: #f1f5f9; stroke: #cbd5e1; stroke-width: 1.1; }
      .arrow { stroke: #64748b; stroke-width: 2.2; fill: none; marker-end: url(#arrow); }
      .loop { stroke: #64748b; stroke-width: 3; fill: none; marker-end: url(#arrow-loop); }
      .dash { stroke: #94a3b8; stroke-width: 1.5; stroke-dasharray: 5 5; fill: none; marker-end: url(#arrow-sm); }
      .line { stroke: #64748b; stroke-width: 1.6; fill: none; }
    </style>
    <marker id="arrow" viewBox="0 0 10 10" refX="9" refY="5" markerWidth="7" markerHeight="7"
            orient="auto">
      <path d="M 0 0 L 10 5 L 0 10 z" fill="#64748b"/>
    </marker>
    <marker id="arrow-loop" viewBox="0 0 10 10" refX="9" refY="5" markerWidth="5" markerHeight="5"
            orient="auto">
      <path d="M 0 0 L 10 5 L 0 10 z" fill="#64748b"/>
    </marker>
    <marker id="arrow-sm" viewBox="0 0 10 10" refX="9" refY="5" markerWidth="6" markerHeight="6"
            orient="auto">
      <path d="M 0 0 L 10 5 L 0 10 z" fill="#94a3b8"/>
    </marker>
  </defs>

  <rect width="1080" height="430" fill="#ffffff"/>

  <rect x="30" y="58" width="1020" height="302" class="outer"/>

  <path d="M 930 124 L 930 98 Q 930 86 918 86 L 435 86 Q 423 86 423 98 L 423 116"
        class="loop"/>
  <text x="155" y="122" text-anchor="middle" class="loop-label">循环所有窗口</text>
  <text x="676" y="74" text-anchor="middle" class="loop-label">处理下一个窗口</text>

  <g transform="translate(40,135)">
    <rect width="230" height="146" class="window"/>
    <text x="115" y="20" text-anchor="middle" class="label">Window i</text>

    <g transform="translate(3,38)">
      <rect width="32" height="22" class="term"/>
      <text x="16" y="15" text-anchor="middle" class="mono">t2</text>
      <rect x="36" width="20" height="22" class="id"/>
      <text x="46" y="15" text-anchor="middle" class="mono">D3</text>
      <rect x="56" width="27" height="22" class="value"/>
      <text x="69" y="15" text-anchor="middle" class="mono">0.8</text>
      <rect x="83" width="20" height="22" class="id"/>
      <text x="93" y="15" text-anchor="middle" class="mono">D8</text>
      <rect x="103" width="27" height="22" class="value"/>
      <text x="116" y="15" text-anchor="middle" class="mono">0.6</text>
      <rect x="130" width="20" height="22" class="id"/>
      <text x="140" y="15" text-anchor="middle" class="mono">D1</text>
      <rect x="150" width="27" height="22" class="value"/>
      <text x="163" y="15" text-anchor="middle" class="mono">0.3</text>
      <rect x="177" width="20" height="22" class="id"/>
      <text x="187" y="15" text-anchor="middle" class="mono">D6</text>
      <rect x="197" width="27" height="22" class="value"/>
      <text x="210" y="15" text-anchor="middle" class="mono">0.5</text>

      <rect y="32" width="32" height="22" class="term"/>
      <text x="16" y="47" text-anchor="middle" class="mono">t7</text>
      <rect x="36" y="32" width="20" height="22" class="id"/>
      <text x="46" y="47" text-anchor="middle" class="mono">D2</text>
      <rect x="56" y="32" width="27" height="22" class="value"/>
      <text x="69" y="47" text-anchor="middle" class="mono">0.7</text>
      <rect x="83" y="32" width="20" height="22" class="id"/>
      <text x="93" y="47" text-anchor="middle" class="mono">D3</text>
      <rect x="103" y="32" width="27" height="22" class="value"/>
      <text x="116" y="47" text-anchor="middle" class="mono">0.4</text>
      <rect x="130" y="32" width="20" height="22" class="id"/>
      <text x="140" y="47" text-anchor="middle" class="mono">D9</text>
      <rect x="150" y="32" width="27" height="22" class="value"/>
      <text x="163" y="47" text-anchor="middle" class="mono">0.2</text>
      <rect x="177" y="32" width="20" height="22" class="id"/>
      <text x="187" y="47" text-anchor="middle" class="mono">D4</text>
      <rect x="197" y="32" width="27" height="22" class="value"/>
      <text x="210" y="47" text-anchor="middle" class="mono">0.5</text>

      <rect y="64" width="32" height="22" class="term"/>
      <text x="16" y="79" text-anchor="middle" class="mono">t9</text>
      <rect x="36" y="64" width="20" height="22" class="id"/>
      <text x="46" y="79" text-anchor="middle" class="mono">D5</text>
      <rect x="56" y="64" width="27" height="22" class="value"/>
      <text x="69" y="79" text-anchor="middle" class="mono">0.3</text>
      <rect x="83" y="64" width="20" height="22" class="id"/>
      <text x="93" y="79" text-anchor="middle" class="mono">D6</text>
      <rect x="103" y="64" width="27" height="22" class="value"/>
      <text x="116" y="79" text-anchor="middle" class="mono">0.5</text>
      <rect x="130" y="64" width="20" height="22" class="id"/>
      <text x="140" y="79" text-anchor="middle" class="mono">D8</text>
      <rect x="150" y="64" width="27" height="22" class="value"/>
      <text x="163" y="79" text-anchor="middle" class="mono">0.6</text>
      <rect x="177" y="64" width="20" height="22" class="id"/>
      <text x="187" y="79" text-anchor="middle" class="mono">D1</text>
      <rect x="197" y="64" width="27" height="22" class="value"/>
      <text x="210" y="79" text-anchor="middle" class="mono">0.4</text>
    </g>

  </g>

  <path d="M 276 208 L 300 208" class="arrow"/>

  <g transform="translate(305,118)">
    <rect width="230" height="190" class="stage"/>
    <text x="115" y="28" text-anchor="middle" class="section">1. 内积计算</text>

    <g transform="translate(10,56)">
      <rect width="48" height="24" class="query"/>
      <text x="24" y="16" text-anchor="middle" class="mono">q:t2</text>
      <rect x="48" width="40" height="24" class="query"/>
      <text x="68" y="16" text-anchor="middle" class="mono">0.5</text>
      <text x="98" y="17" class="small">×</text>
      <rect x="112" width="27" height="24" class="value"/>
      <text x="125" y="16" text-anchor="middle" class="mono">0.8</text>
      <rect x="139" width="27" height="24" class="value"/>
      <text x="152" y="16" text-anchor="middle" class="mono">0.6</text>
      <rect x="166" width="27" height="24" class="value"/>
      <text x="179" y="16" text-anchor="middle" class="mono">0.3</text>
      <rect x="193" width="27" height="24" class="value"/>
      <text x="206" y="16" text-anchor="middle" class="mono">0.5</text>
    </g>

    <text x="115" y="110" text-anchor="middle" class="small">取出 t2 的 value 列并逐项相乘</text>
    <path d="M 115 116 L 115 136" class="arrow"/>

    <g transform="translate(24,146)">
      <rect width="44" height="26" class="product"/>
      <text x="22" y="17" text-anchor="middle" class="mono">0.40</text>
      <rect x="44" width="44" height="26" class="product"/>
      <text x="66" y="17" text-anchor="middle" class="mono">0.30</text>
      <rect x="88" width="44" height="26" class="product"/>
      <text x="110" y="17" text-anchor="middle" class="mono">0.15</text>
      <rect x="132" width="44" height="26" class="product"/>
      <text x="154" y="17" text-anchor="middle" class="mono">0.25</text>
    </g>
  </g>

  <path d="M 541 208 L 565 208" class="arrow"/>

  <g transform="translate(570,118)">
    <rect width="230" height="190" class="stage"/>
    <text x="115" y="28" text-anchor="middle" class="section">2. 得分累加</text>

    <g transform="translate(28,52)">
      <text x="22" y="-5" text-anchor="middle" class="small">D3</text>
      <rect width="44" height="26" class="product"/>
      <text x="22" y="17" text-anchor="middle" class="mono">0.40</text>
      <text x="66" y="-5" text-anchor="middle" class="small">D8</text>
      <rect x="44" width="44" height="26" class="product"/>
      <text x="66" y="17" text-anchor="middle" class="mono">0.30</text>
      <text x="110" y="-5" text-anchor="middle" class="small">D1</text>
      <rect x="88" width="44" height="26" class="product"/>
      <text x="110" y="17" text-anchor="middle" class="mono">0.15</text>
      <text x="154" y="-5" text-anchor="middle" class="small">D6</text>
      <rect x="132" width="44" height="26" class="product"/>
      <text x="154" y="17" text-anchor="middle" class="mono">0.25</text>
    </g>

    <path d="M 50 80 L 50 118" class="dash"/>
    <path d="M 94 80 L 154 118" class="dash"/>
    <path d="M 138 80 L 26 118" class="dash"/>
    <path d="M 182 80 L 122 118" class="dash"/>

    <g transform="translate(14,124)">
      <rect width="34" height="30" class="score"/>
      <text x="17" y="20" text-anchor="middle" class="mono">0.15</text>
      <rect x="34" width="34" height="30" class="score-empty"/>
      <text x="51" y="20" text-anchor="middle" class="mono">0</text>
      <rect x="68" width="34" height="30" class="score"/>
      <text x="85" y="20" text-anchor="middle" class="mono">0.40</text>
      <rect x="102" width="34" height="30" class="score"/>
      <text x="119" y="20" text-anchor="middle" class="mono">0.25</text>
      <rect x="136" width="34" height="30" class="score"/>
      <text x="153" y="20" text-anchor="middle" class="mono">0.30</text>
      <rect x="170" width="34" height="30" class="score-empty"/>
      <text x="187" y="20" text-anchor="middle" class="mono">0</text>
    </g>
    <text x="115" y="176" text-anchor="middle" class="small">累加到窗口内距离表</text>
  </g>

  <path d="M 806 208 L 830 208" class="arrow"/>

  <g transform="translate(835,118)">
    <rect width="190" height="190" class="stage"/>
    <text x="95" y="28" text-anchor="middle" class="section">3. 入堆更新</text>

    <g transform="translate(5,50)">
      <rect width="30" height="30" class="score"/>
      <text x="15" y="20" text-anchor="middle" class="mono">0.15</text>
      <rect x="30" width="30" height="30" class="score-empty"/>
      <text x="45" y="20" text-anchor="middle" class="mono">0</text>
      <rect x="60" width="30" height="30" class="heap-hit"/>
      <text x="75" y="20" text-anchor="middle" class="mono">0.40</text>
      <rect x="90" width="30" height="30" class="heap-hit"/>
      <text x="105" y="20" text-anchor="middle" class="mono">0.25</text>
      <rect x="120" width="30" height="30" class="heap-hit"/>
      <text x="135" y="20" text-anchor="middle" class="mono">0.30</text>
      <rect x="150" width="30" height="30" class="score-empty"/>
      <text x="165" y="20" text-anchor="middle" class="mono">0</text>
    </g>
    <text x="95" y="92" text-anchor="middle" class="small">满足阈值的文档进入 heap</text>

    <g transform="translate(42,104)">
      <line x1="54" y1="15" x2="28" y2="54" class="line"/>
      <line x1="54" y1="15" x2="82" y2="54" class="line"/>
      <circle cx="54" cy="15" r="13" class="heap-node"/>
      <circle cx="28" cy="54" r="13" class="heap-node"/>
      <circle cx="82" cy="54" r="13" class="heap-node"/>
    </g>
    <text x="95" y="187" text-anchor="middle" class="small">top-k heap</text>
  </g>

  <g transform="translate(78,326)">
    <rect width="22" height="16" class="id"/>
    <text x="32" y="13" class="small">doc id</text>
    <rect x="104" width="22" height="16" class="value"/>
    <text x="136" y="13" class="small">term value</text>
    <rect x="230" width="22" height="16" class="product"/>
    <text x="262" y="13" class="small">乘积</text>
    <rect x="330" width="22" height="16" class="score"/>
    <text x="362" y="13" class="small">距离表</text>
    <rect x="446" width="22" height="16" class="heap-hit"/>
    <text x="478" y="13" class="small">入堆候选</text>
  </g>
</svg>
