<svg xmlns="http://www.w3.org/2000/svg" width="1080" height="430" viewBox="0 0 1080 430">
  <defs>
    <style>
      .title { font: 700 24px Arial, "Microsoft YaHei", sans-serif; fill: #172033; }
      .section { font: 700 20px Arial, "Microsoft YaHei", sans-serif; fill: #172033; }
      .label { font: 700 14px Arial, "Microsoft YaHei", sans-serif; fill: #334155; }
      .small { font: 12px Arial, "Microsoft YaHei", sans-serif; fill: #64748b; }
      .dataset-front { fill: #ecfdf5; stroke: #34d399; stroke-width: 1.5; }
      .dataset-top { fill: #d1fae5; stroke: #34d399; stroke-width: 1.5; }
      .dataset-side { fill: #bbf7d0; stroke: #34d399; stroke-width: 1.5; }
      .batch-card { fill: #fef3c7; stroke: #f59e0b; stroke-width: 1.25; rx: 3; }
      .batch-line { stroke: #f59e0b; stroke-width: 1.15; }
      .window { fill: #eef6ff; stroke: #87bdf8; stroke-width: 1.3; rx: 8; }
      .id { fill: #dbeafe; stroke: #60a5fa; stroke-width: 1.1; }
      .value { fill: #fef3c7; stroke: #f59e0b; stroke-width: 1.1; }
      .arrow { stroke: #64748b; stroke-width: 2.2; fill: none; marker-end: url(#arrow); }
    </style>
    <marker id="arrow" viewBox="0 0 10 10" refX="9" refY="5" markerWidth="7" markerHeight="7"
            orient="auto">
      <path d="M 0 0 L 10 5 L 0 10 z" fill="#64748b"/>
    </marker>
  </defs>

  <rect width="1080" height="430" fill="#ffffff"/>

  <g transform="translate(70,176)">
    <polygon points="0,28 38,0 158,0 120,28" class="dataset-top"/>
    <polygon points="120,28 158,0 158,92 120,120" class="dataset-side"/>
    <rect x="0" y="28" width="120" height="92" class="dataset-front"/>
    <text x="60" y="82" text-anchor="middle" class="section">Dataset</text>
  </g>

  <path d="M 228 232 L 360 118" class="arrow"/>
  <path d="M 228 232 L 360 218" class="arrow"/>
  <path d="M 228 232 L 360 318" class="arrow"/>

  <g transform="translate(360,70)">
    <text x="100" y="-10" text-anchor="middle" class="section">batch 1</text>
    <g transform="translate(0,0)">
      <rect x="0" y="0" width="156" height="42" class="batch-card"/>
      <line x1="39" y1="0" x2="39" y2="42" class="batch-line"/>
      <line x1="78" y1="0" x2="78" y2="42" class="batch-line"/>
      <line x1="117" y1="0" x2="117" y2="42" class="batch-line"/>
    </g>
    <g transform="translate(18,10)">
      <rect x="0" y="0" width="156" height="42" class="batch-card"/>
      <line x1="39" y1="0" x2="39" y2="42" class="batch-line"/>
      <line x1="78" y1="0" x2="78" y2="42" class="batch-line"/>
      <line x1="117" y1="0" x2="117" y2="42" class="batch-line"/>
    </g>
    <g transform="translate(36,20)">
      <rect x="0" y="0" width="156" height="42" class="batch-card"/>
      <line x1="39" y1="0" x2="39" y2="42" class="batch-line"/>
      <line x1="78" y1="0" x2="78" y2="42" class="batch-line"/>
      <line x1="117" y1="0" x2="117" y2="42" class="batch-line"/>
    </g>
    <g transform="translate(54,30)">
      <rect x="0" y="0" width="156" height="42" class="batch-card"/>
      <line x1="39" y1="0" x2="39" y2="42" class="batch-line"/>
      <line x1="78" y1="0" x2="78" y2="42" class="batch-line"/>
      <line x1="117" y1="0" x2="117" y2="42" class="batch-line"/>
    </g>
  </g>

  <g transform="translate(360,175)">
    <text x="100" y="-10" text-anchor="middle" class="section">batch 2</text>
    <g transform="translate(0,0)">
      <rect x="0" y="0" width="156" height="42" class="batch-card"/>
      <line x1="39" y1="0" x2="39" y2="42" class="batch-line"/>
      <line x1="78" y1="0" x2="78" y2="42" class="batch-line"/>
      <line x1="117" y1="0" x2="117" y2="42" class="batch-line"/>
    </g>
    <g transform="translate(18,10)">
      <rect x="0" y="0" width="156" height="42" class="batch-card"/>
      <line x1="39" y1="0" x2="39" y2="42" class="batch-line"/>
      <line x1="78" y1="0" x2="78" y2="42" class="batch-line"/>
      <line x1="117" y1="0" x2="117" y2="42" class="batch-line"/>
    </g>
    <g transform="translate(36,20)">
      <rect x="0" y="0" width="156" height="42" class="batch-card"/>
      <line x1="39" y1="0" x2="39" y2="42" class="batch-line"/>
      <line x1="78" y1="0" x2="78" y2="42" class="batch-line"/>
      <line x1="117" y1="0" x2="117" y2="42" class="batch-line"/>
    </g>
    <g transform="translate(54,30)">
      <rect x="0" y="0" width="156" height="42" class="batch-card"/>
      <line x1="39" y1="0" x2="39" y2="42" class="batch-line"/>
      <line x1="78" y1="0" x2="78" y2="42" class="batch-line"/>
      <line x1="117" y1="0" x2="117" y2="42" class="batch-line"/>
    </g>
  </g>

  <g transform="translate(360,280)">
    <text x="100" y="-10" text-anchor="middle" class="section">batch 3</text>
    <g transform="translate(0,0)">
      <rect x="0" y="0" width="156" height="42" class="batch-card"/>
      <line x1="39" y1="0" x2="39" y2="42" class="batch-line"/>
      <line x1="78" y1="0" x2="78" y2="42" class="batch-line"/>
      <line x1="117" y1="0" x2="117" y2="42" class="batch-line"/>
    </g>
    <g transform="translate(18,10)">
      <rect x="0" y="0" width="156" height="42" class="batch-card"/>
      <line x1="39" y1="0" x2="39" y2="42" class="batch-line"/>
      <line x1="78" y1="0" x2="78" y2="42" class="batch-line"/>
      <line x1="117" y1="0" x2="117" y2="42" class="batch-line"/>
    </g>
    <g transform="translate(36,20)">
      <rect x="0" y="0" width="156" height="42" class="batch-card"/>
      <line x1="39" y1="0" x2="39" y2="42" class="batch-line"/>
      <line x1="78" y1="0" x2="78" y2="42" class="batch-line"/>
      <line x1="117" y1="0" x2="117" y2="42" class="batch-line"/>
    </g>
    <g transform="translate(54,30)">
      <rect x="0" y="0" width="156" height="42" class="batch-card"/>
      <line x1="39" y1="0" x2="39" y2="42" class="batch-line"/>
      <line x1="78" y1="0" x2="78" y2="42" class="batch-line"/>
      <line x1="117" y1="0" x2="117" y2="42" class="batch-line"/>
    </g>
  </g>

  <path d="M 582 121 L 735 114" class="arrow"/>
  <path d="M 582 226 L 735 219" class="arrow"/>
  <path d="M 582 331 L 735 324" class="arrow"/>

  <g transform="translate(735,70)">
    <rect width="260" height="88" class="window"/>
    <text x="130" y="22" text-anchor="middle" class="label">Window 1</text>
    <g transform="translate(25,36)">
      <rect x="0" y="0" width="26" height="16" class="id"/>
      <rect x="26" y="0" width="32" height="16" class="value"/>
      <rect x="0" y="16" width="26" height="16" class="id"/>
      <rect x="26" y="16" width="32" height="16" class="value"/>
      <rect x="0" y="32" width="26" height="16" class="id"/>
      <rect x="26" y="32" width="32" height="16" class="value"/>

      <rect x="78" y="0" width="26" height="16" class="id"/>
      <rect x="104" y="0" width="32" height="16" class="value"/>
      <rect x="78" y="16" width="26" height="16" class="id"/>
      <rect x="104" y="16" width="32" height="16" class="value"/>
      <rect x="78" y="32" width="26" height="16" class="id"/>
      <rect x="104" y="32" width="32" height="16" class="value"/>

      <rect x="156" y="0" width="26" height="16" class="id"/>
      <rect x="182" y="0" width="32" height="16" class="value"/>
      <rect x="156" y="16" width="26" height="16" class="id"/>
      <rect x="182" y="16" width="32" height="16" class="value"/>
      <rect x="156" y="32" width="26" height="16" class="id"/>
      <rect x="182" y="32" width="32" height="16" class="value"/>
    </g>
  </g>

  <g transform="translate(735,175)">
    <rect width="260" height="88" class="window"/>
    <text x="130" y="22" text-anchor="middle" class="label">Window 2</text>
    <g transform="translate(25,36)">
      <rect x="0" y="0" width="26" height="16" class="id"/>
      <rect x="26" y="0" width="32" height="16" class="value"/>
      <rect x="0" y="16" width="26" height="16" class="id"/>
      <rect x="26" y="16" width="32" height="16" class="value"/>
      <rect x="0" y="32" width="26" height="16" class="id"/>
      <rect x="26" y="32" width="32" height="16" class="value"/>

      <rect x="78" y="0" width="26" height="16" class="id"/>
      <rect x="104" y="0" width="32" height="16" class="value"/>
      <rect x="78" y="16" width="26" height="16" class="id"/>
      <rect x="104" y="16" width="32" height="16" class="value"/>
      <rect x="78" y="32" width="26" height="16" class="id"/>
      <rect x="104" y="32" width="32" height="16" class="value"/>

      <rect x="156" y="0" width="26" height="16" class="id"/>
      <rect x="182" y="0" width="32" height="16" class="value"/>
      <rect x="156" y="16" width="26" height="16" class="id"/>
      <rect x="182" y="16" width="32" height="16" class="value"/>
      <rect x="156" y="32" width="26" height="16" class="id"/>
      <rect x="182" y="32" width="32" height="16" class="value"/>
    </g>
  </g>

  <g transform="translate(735,280)">
    <rect width="260" height="88" class="window"/>
    <text x="130" y="22" text-anchor="middle" class="label">Window 3</text>
    <g transform="translate(25,36)">
      <rect x="0" y="0" width="26" height="16" class="id"/>
      <rect x="26" y="0" width="32" height="16" class="value"/>
      <rect x="0" y="16" width="26" height="16" class="id"/>
      <rect x="26" y="16" width="32" height="16" class="value"/>
      <rect x="0" y="32" width="26" height="16" class="id"/>
      <rect x="26" y="32" width="32" height="16" class="value"/>

      <rect x="78" y="0" width="26" height="16" class="id"/>
      <rect x="104" y="0" width="32" height="16" class="value"/>
      <rect x="78" y="16" width="26" height="16" class="id"/>
      <rect x="104" y="16" width="32" height="16" class="value"/>
      <rect x="78" y="32" width="26" height="16" class="id"/>
      <rect x="104" y="32" width="32" height="16" class="value"/>

      <rect x="156" y="0" width="26" height="16" class="id"/>
      <rect x="182" y="0" width="32" height="16" class="value"/>
      <rect x="156" y="16" width="26" height="16" class="id"/>
      <rect x="182" y="16" width="32" height="16" class="value"/>
      <rect x="156" y="32" width="26" height="16" class="id"/>
      <rect x="182" y="32" width="32" height="16" class="value"/>
    </g>
  </g>
</svg>
